HIERARCHY
ROOT Hips
{
    OFFSET 0.000000 0.000000 0.000000
    CHANNELS 6 Xposition Yposition Zposition Zrotation Xrotation Yrotation
    JOINT Spine
    {
        OFFSET -0.000000 0.083210 0.000000
        CHANNELS 3 Zrotation Xrotation Yrotation
        JOINT Spine1
        {
            OFFSET -0.000000 0.256334 0.000000
            CHANNELS 3 Zrotation Xrotation Yrotation
            JOINT Neck
            {
                OFFSET -0.000000 0.275576 0.002912
                CHANNELS 3 Zrotation Xrotation Yrotation
                JOINT Head
                {
                    OFFSET -0.000000 0.157287 0.020295
                    CHANNELS 3 Zrotation Xrotation Yrotation
                    End Site
                    {
                        OFFSET -0.000000 0.202951 0.000000
                    }
                }
            }
            JOINT LeftShoulder
            {
                OFFSET 0.041044 0.235234 -0.000041
                CHANNELS 3 Zrotation Xrotation Yrotation
                JOINT LeftArm
                {
                    OFFSET 0.117964 0.000000 0.000000
                    CHANNELS 3 Zrotation Xrotation Yrotation
                    JOINT LeftForeArm
                    {
                        OFFSET 0.291248 0.000000 0.000000
                        CHANNELS 3 Zrotation Xrotation Yrotation
                        JOINT LeftHand
                        {
                            OFFSET 0.245673 0.000000 0.000000
                            CHANNELS 3 Zrotation Xrotation Yrotation
                            End Site
                            {
                                OFFSET 0.152213 0.000000 0.000000
                            }
                        }
                    }
                }
            }
            JOINT RightShoulder
            {
                OFFSET -0.040052 0.235234 -0.000041
                CHANNELS 3 Zrotation Xrotation Yrotation
                JOINT RightArm
                {
                    OFFSET -0.117964 0.000000 0.000000
                    CHANNELS 3 Zrotation Xrotation Yrotation
                    JOINT RightForeArm
                    {
                        OFFSET -0.291248 0.000000 0.000000
                        CHANNELS 3 Zrotation Xrotation Yrotation
                        JOINT RightHand
                        {
                            OFFSET -0.245673 0.000000 0.000000
                            CHANNELS 3 Zrotation Xrotation Yrotation
                            End Site
                            {
                                OFFSET -0.152213 0.000000 0.000000
                            }
                        }
                    }
                }
            }
        }
    }
    JOINT LeftUpLeg
    {
        OFFSET 0.101475 0.000000 0.000000
        CHANNELS 3 Zrotation Xrotation Yrotation
        JOINT LeftLeg
        {
            OFFSET -0.000000 -0.446535 0.000000
            CHANNELS 3 Zrotation Xrotation Yrotation
            JOINT LeftFoot
            {
                OFFSET -0.000000 -0.400037 0.000000
                CHANNELS 3 Zrotation Xrotation Yrotation
                JOINT LeftToeBase
                {
                    OFFSET -0.000000 -0.065959 0.152213
                    CHANNELS 3 Zrotation Xrotation Yrotation
                    End Site
                    {
                        OFFSET -0.000000 0.000000 0.040590
                    }
                }
            }
        }
    }
    JOINT RightUpLeg
    {
        OFFSET -0.101475 0.000000 0.000000
        CHANNELS 3 Zrotation Xrotation Yrotation
        JOINT RightLeg
        {
            OFFSET -0.000000 -0.446535 0.000000
            CHANNELS 3 Zrotation Xrotation Yrotation
            JOINT RightFoot
            {
                OFFSET -0.000000 -0.400037 0.000000
                CHANNELS 3 Zrotation Xrotation Yrotation
                JOINT RightToeBase
                {
                    OFFSET -0.000000 -0.065959 0.152213
                    CHANNELS 3 Zrotation Xrotation Yrotation
                    End Site
                    {
                        OFFSET -0.000000 0.000000 0.040590
                    }
                }
            }
        }
    }
}
MOTION
Frames:    8
Frame Time:    0.008333
-0.702102    0.860047    -0.734961    0.939673    -2.837544    -76.513756    -1.914659    16.428589    -2.857723    -7.452428    -1.185663    -1.110504    0.366314    11.168225    26.043152    -14.611299    -11.149803    27.243233    -1.482834    9.289819    -24.113512    -65.087334    15.537890    -4.704584    64.772118    -45.894962    -59.517914    42.317917    -5.857035    6.112438    -6.762671    -5.008790    24.783142    14.371869    54.785355    66.845085    -19.802776    -34.892902    92.343628    -5.872031    -15.140698    -17.083834    26.838739    -19.923843    9.667635    -1.658069    34.190205    2.222625    -24.561871    1.893503    2.527645    -0.281449    -3.233680    4.868847    -18.368702    -32.191322    -9.162029    7.983764    57.905319    6.639919    2.662892    -23.197453    -16.500959    0.269058    -3.378043    4.883586    
-0.704142    0.857349    -0.728018    0.747501    -3.069325    -78.124237    -1.845940    16.535269    -2.482052    -7.838037    -1.046925    -0.976689    0.215570    11.221988    26.418739    -14.804532    -11.302066    27.573954    -1.819192    9.771077    -24.050859    -64.936028    13.873906    -4.082541    62.331818    -45.773403    -62.337658    43.170506    -5.292106    5.910725    -7.078868    -4.925627    24.875977    12.405215    54.684406    68.457245    -19.986050    -34.972607    91.995056    -6.256416    -15.109429    -17.082424    26.630608    -19.100599    8.965838    -1.682169    31.032400    2.198852    -25.310881    2.392003    1.536804    -0.255160    -3.237139    4.416833    -19.244860    -32.487247    -10.093323    8.799313    58.506439    5.072529    2.671793    -23.248148    -16.856771    0.275098    -3.480044    4.913858    
-0.705956    0.854264    -0.720615    0.601503    -3.355991    -79.838470    -1.722502    16.516911    -2.102661    -8.330755    -0.729600    -0.825052    -0.187838    11.014470    26.869949    -14.781115    -11.373732    27.930645    -2.028450    9.945437    -23.672798    -64.848801    12.785821    -3.675022    60.200970    -45.478264    -64.466431    43.704365    -5.004116    5.605184    -7.728664    -5.031367    24.842630    11.031641    54.258369    69.956573    -20.147257    -34.622887    91.455750    -6.163870    -14.763981    -16.569574    26.354383    -18.353756    7.732957    -2.005194    28.577005    2.880558    -25.568056    1.856068    1.999831    -0.266238    -1.094885    3.485295    -20.228462    -32.898804    -11.182270    9.426163    59.142479    3.619115    2.588265    -23.219358    -17.102648    0.254865    -3.384453    4.621587    
-0.708275    0.850780    -0.712880    0.345173    -3.655655    -81.524651    -1.578372    16.530268    -1.608728    -8.804391    -0.379341    -0.629107    -0.565951    10.878784    27.234137    -14.817560    -11.345119    28.219843    -2.158442    9.978849    -23.345083    -64.859459    12.327984    -3.398165    58.533428    -45.035057    -65.745171    43.381248    -4.928801    5.373180    -8.404420    -5.307609    24.804520    10.456508    53.841473    70.762543    -20.288916    -34.001534    91.022652    -6.089763    -14.053544    -16.590757    26.071905    -17.631329    5.957668    -2.487982    27.003628    3.198866    -25.656801    0.939567    3.875226    -0.278394    0.625911    3.049286    -21.286158    -33.209587    -12.388894    9.864406    59.882381    2.505313    2.616426    -23.236250    -17.222443    0.249978    -3.396496    4.524446    
-0.710715    0.846871    -0.705211    0.050047    -3.923397    -83.263268    -1.536598    16.545641    -0.920340    -9.097686    -0.243359    -0.387735    -0.954587    11.431990    27.489944    -15.152758    -11.580115    28.361032    -2.411318    10.149187    -23.365292    -64.606102    12.023121    -3.331944    56.642746    -44.410927    -66.664421    45.065060    -5.037661    5.218139    -8.874640    -5.129193    25.018644    10.173083    53.118034    70.841293    -20.237488    -33.183647    90.718330    -6.435420    -13.204434    -16.782612    25.934078    -16.874733    3.684472    -3.419460    26.179371    6.255308    -25.817699    0.534332    4.256818    -0.253891    2.669115    2.330342    -22.300131    -33.565029    -13.463387    10.226501    60.680107    1.634075    2.657631    -23.273348    -17.203096    0.244500    -3.267530    4.517263    
-0.713269    0.842572    -0.697508    -0.289067    -4.177072    -84.966331    -1.454708    16.572088    -0.223161    -9.380184    -0.001226    -0.132060    -1.393538    11.718418    27.758650    -15.370392    -11.607026    28.528591    -2.570740    10.205204    -23.173056    -64.490601    12.461928    -3.553781    55.546410    -44.006657    -66.713470    46.152058    -5.392740    5.298604    -9.398347    -4.979563    25.099827    10.011633    52.275257    70.924561    -20.415236    -32.434902    90.362358    -6.106238    -12.310175    -17.087990    25.889738    -16.095537    1.631631    -4.666810    26.150063    11.148925    -25.798105    0.418757    2.724972    -0.223711    4.657405    1.774209    -23.269260    -33.919922    -14.489620    10.214928    61.553349    1.042641    3.045019    -23.339760    -16.640823    0.243458    -3.285130    4.485315    
-0.715958    0.837890    -0.690075    -0.691685    -4.368509    -86.657814    -1.372876    16.582510    0.532681    -9.547906    0.284960    0.148244    -1.940900    12.146604    28.014582    -15.614937    -11.727436    28.640434    -2.834035    10.293731    -23.066067    -64.318802    12.893729    -3.817706    54.633152    -43.692955    -66.612572    47.052872    -5.813149    5.400660    -9.804473    -5.092611    25.280596    10.063254    51.660305    70.743813    -20.240921    -31.594269    90.243576    -6.713873    -11.452062    -17.506201    26.016964    -15.365140    0.127152    -6.156940    27.325970    16.066374    -26.312479    0.020819    0.405466    -0.145956    5.608705    1.086982    -24.078386    -34.303974    -15.428377    9.657911    62.502209    1.417327    3.342819    -23.419947    -16.088737    0.250798    -3.268599    4.632694    
-0.718566    0.832864    -0.683047    -1.097834    -4.471052    -88.268028    -1.320767    16.680079    1.308967    -9.559429    0.453416    0.422968    -2.433390    12.566970    28.252941    -15.903367    -11.783863    28.752628    -3.140873    10.294396    -22.948124    -64.345726    13.643485    -4.088116    54.384842    -43.612133    -65.987633    47.567654    -6.309160    5.649538    -10.076143    -5.499340    25.450874    10.279258    51.496460    70.364983    -20.029957    -30.944820    90.336662    -7.187253    -10.799850    -17.867683    26.286282    -14.911411    0.291059    -7.488563    29.808386    18.932066    -26.864450    -2.150294    -1.878766    -0.076102    5.134212    0.584570    -24.733974    -34.748199    -15.817312    9.597265    63.471359    1.500557    3.662259    -23.529966    -15.399924    0.258831    -3.302655    4.754847    
